<?xml version="1.0" ?><!-- Uploaded to: SVG Repo, www.svgrepo.com, Generator: SVG Repo Mixer Tools -->
<svg width="800px" height="800px" viewBox="0 0 64 64" id="Flat" xmlns="http://www.w3.org/2000/svg"><path d="M12,27H52a4,4,0,0,1,4,4V43a0,0,0,0,1,0,0H8a0,0,0,0,1,0,0V31A4,4,0,0,1,12,27Z" style="fill:#fce666"/><path d="M16,11H48a4,4,0,0,1,4,4V27a0,0,0,0,1,0,0H12a0,0,0,0,1,0,0V15A4,4,0,0,1,16,11Z" style="fill:#ffeedc"/><path d="M6,43H58a2,2,0,0,1,2,2v2a0,0,0,0,1,0,0H4a0,0,0,0,1,0,0V45A2,2,0,0,1,6,43Z" style="fill:#ac8168"/><rect height="14" style="fill:#ac8168" width="8" x="28" y="47"/><path d="M39,62H25a1,1,0,0,1,0-2H39a1,1,0,0,1,0,2Z" style="fill:#ac8168"/><rect height="2" style="fill:#ef4037" width="2" x="15" y="14"/><rect height="2" style="fill:#ef4037" width="2" x="19" y="14"/><rect height="2" style="fill:#ef4037" width="2" x="23" y="14"/><rect height="2" style="fill:#ef4037" width="2" x="27" y="14"/><rect height="2" style="fill:#ef4037" width="2" x="31" y="14"/><rect height="2" style="fill:#ef4037" width="2" x="35" y="14"/><rect height="2" style="fill:#ef4037" width="2" x="39" y="14"/><rect height="2" style="fill:#ef4037" width="2" x="43" y="14"/><rect height="2" style="fill:#ef4037" width="2" x="47" y="14"/><circle cx="22" cy="8" r="3" style="fill:#ef4037"/><circle cx="32" cy="8" r="3" style="fill:#ef4037"/><path d="M22,7a1,1,0,0,1-1-1V3a1,1,0,0,1,2,0V6A1,1,0,0,1,22,7Z" style="fill:#a3b75c"/><path d="M32,7a1,1,0,0,1-1-1V3a1,1,0,0,1,2,0V6A1,1,0,0,1,32,7Z" style="fill:#a3b75c"/><circle cx="42" cy="8" r="3" style="fill:#ef4037"/><path d="M42,7a1,1,0,0,1-1-1V3a1,1,0,0,1,2,0V6A1,1,0,0,1,42,7Z" style="fill:#a3b75c"/><rect height="2" style="fill:#ef4037" width="2" x="15" y="30"/><rect height="2" style="fill:#ef4037" width="2" x="19" y="30"/><rect height="2" style="fill:#ef4037" width="2" x="23" y="30"/><rect height="2" style="fill:#ef4037" width="2" x="27" y="30"/><rect height="2" style="fill:#ef4037" width="2" x="31" y="30"/><rect height="2" style="fill:#ef4037" width="2" x="35" y="30"/><rect height="2" style="fill:#ef4037" width="2" x="39" y="30"/><rect height="2" style="fill:#ef4037" width="2" x="43" y="30"/><rect height="2" style="fill:#ef4037" width="2" x="47" y="30"/><rect height="2" style="fill:#ef4037" width="2" x="11" y="30"/><rect height="2" style="fill:#ef4037" width="2" x="51" y="30"/><polygon points="28 45 33 41 46 50.917 41 55 28 45" style="fill:#ee638c"/><polygon points="36 45 31 41 18 51 23 55 36 45" style="fill:#ee638c"/><rect height="6" style="fill:#ffeedc" width="6" x="29" y="41"/><polygon points="19 47 29 47 29 41 21 39 19 47" style="fill:#ee638c"/><polygon points="45 47 35 47 35 41 43 39 45 47" style="fill:#ee638c"/></svg>