<?xml version="1.0" encoding="iso-8859-1"?>
<!-- Uploaded to: SVG Repo, www.svgrepo.com, Generator: SVG Repo Mixer Tools -->
<svg height="800px" width="800px" version="1.1" id="Layer_1" xmlns="http://www.w3.org/2000/svg" xmlns:xlink="http://www.w3.org/1999/xlink" 
	 viewBox="0 0 512 512" xml:space="preserve">
<g>
	<path style="fill:#582277;" d="M204.392,85.972c-5-2.999-11.203-3.154-16.345-0.41L31.38,169.163
		c-5.406,2.885-8.781,8.512-8.781,14.639v72.709c0,5.829,3.058,11.231,8.057,14.228c2.623,1.573,5.576,2.364,8.535,2.364
		c2.681,0,5.367-0.649,7.812-1.953l156.667-83.602c5.406-2.884,8.781-8.512,8.781-14.639V100.2
		C212.45,94.372,209.391,88.971,204.392,85.972z"/>
	<path style="fill:#582277;" d="M204.392,255.639c-5-2.999-11.203-3.155-16.345-0.409l-92.52,49.37
		c-44.984,24.004-72.929,70.59-72.929,121.579c0,5.829,3.058,11.231,8.057,14.228c2.623,1.573,5.576,2.364,8.535,2.364
		c2.681,0,5.367-0.649,7.812-1.953l156.667-83.602c5.406-2.884,8.781-8.512,8.781-14.639v-72.71
		C212.45,264.039,209.391,258.638,204.392,255.639z"/>
</g>
<g>
	<polygon style="fill:#F2D138;" points="233.32,20.628 240.693,34.109 254.173,41.482 240.693,48.854 233.32,62.335 225.947,48.854 
		212.466,41.482 225.947,34.109 	"/>
	<polygon style="fill:#F2D138;" points="482.289,23.053 474.531,49.544 482.289,76.033 455.8,68.275 429.31,76.033 437.068,49.544 
		429.31,23.053 455.8,30.812 	"/>
	<polygon style="fill:#F2D138;" points="254.044,380.587 264.758,400.176 284.346,410.89 264.758,421.603 254.044,441.192 
		243.331,421.603 223.741,410.89 243.331,400.176 	"/>
	<polygon style="fill:#F2D138;" points="468.893,457 476.144,470.257 489.401,477.508 476.144,484.759 468.893,498.016 
		461.642,484.759 448.385,477.508 461.642,470.257 	"/>
	<polygon style="fill:#F2D138;" points="170.567,441.192 162.798,467.713 170.567,494.235 144.045,486.467 117.524,494.235 
		125.291,467.713 117.524,441.192 144.045,448.96 	"/>
</g>
<g>
	<path style="fill:#6D2B92;" d="M203.668,85.555L47.002,1.954c-5.14-2.744-11.348-2.589-16.345,0.409
		c-5,2.999-8.058,8.399-8.058,14.228c0,50.989,27.944,97.575,72.929,121.579l92.52,49.37c2.445,1.304,5.129,1.953,7.812,1.953
		c2.959,0,5.913-0.791,8.535-2.364c5-2.998,8.057-8.4,8.057-14.228v-72.709C212.45,94.067,209.074,88.439,203.668,85.555z"/>
	<path style="fill:#6D2B92;" d="M203.668,254.313L47.002,170.712c-5.14-2.744-11.348-2.589-16.345,0.409
		c-5,2.999-8.057,8.4-8.057,14.228v72.71c0,6.127,3.376,11.754,8.781,14.639L188.047,356.3c2.445,1.304,5.129,1.953,7.812,1.953
		c2.959,0,5.913-0.791,8.535-2.364c5-2.998,8.057-8.4,8.057-14.228v-72.71C212.45,262.825,209.074,257.198,203.668,254.313z"/>
</g>
<g>
	<path style="fill:#A56200;" d="M464.335,155.201c-5-2.999-11.204-3.154-16.345-0.41l-156.667,83.602
		c-5.406,2.885-8.781,8.512-8.781,14.639v72.709c0,5.829,3.058,11.231,8.057,14.228c2.623,1.573,5.576,2.364,8.535,2.364
		c2.681,0,5.367-0.649,7.812-1.953l156.667-83.602c5.406-2.884,8.781-8.512,8.781-14.639v-72.709
		C472.392,163.601,469.333,158.199,464.335,155.201z"/>
	<path style="fill:#A56200;" d="M464.335,324.868c-5-2.999-11.204-3.155-16.345-0.409l-92.52,49.37
		c-44.984,24.004-72.929,70.59-72.929,121.579c0,5.829,3.059,11.231,8.057,14.228c2.623,1.573,5.576,2.364,8.535,2.364
		c2.681,0,5.367-0.649,7.812-1.953l156.667-83.602c5.406-2.885,8.78-8.512,8.78-14.639v-72.709
		C472.392,333.268,469.333,327.867,464.335,324.868z"/>
</g>
<g>
	<path style="fill:#E78600;" d="M463.61,154.784L306.944,71.182c-5.14-2.744-11.348-2.589-16.345,0.409
		c-5,2.998-8.057,8.4-8.057,14.228c0,50.989,27.944,97.575,72.929,121.579l92.52,49.37c2.445,1.304,5.129,1.953,7.812,1.953
		c2.959,0,5.913-0.791,8.535-2.364c5-2.998,8.057-8.4,8.057-14.228v-72.709C472.392,163.295,469.016,157.668,463.61,154.784z"/>
	<path style="fill:#E78600;" d="M463.61,323.543l-156.667-83.602c-5.14-2.743-11.348-2.588-16.345,0.41
		c-5,2.998-8.057,8.4-8.057,14.228v72.709c0,6.127,3.376,11.754,8.781,14.639l156.667,83.602c2.445,1.304,5.129,1.953,7.812,1.953
		c2.959,0,5.913-0.791,8.535-2.364c5-2.998,8.057-8.4,8.057-14.228v-72.709C472.392,332.054,469.016,326.426,463.61,323.543z"/>
</g>
</svg>